# xmcd CD database file
#
# Track frame offsets:
#	150
#	21201
#	38714
#	54297
#	79513
#	96271
#	114458
#	134588
#	157943
#	174862
#	199441
#	220657
#	240129
#	252083
#	271663
#	286358
#	314580
#	340470
#
# Disc length: 4745 seconds
#
# Revision: 3
# Processed by: cddbd v1.5.2PL0 Copyright (c) Steve Scherf et al.
# Submitted via: CDex 1.70beta2
#
DISCID=f1128712
DTITLE=Carlos Manuel - ISIS
DYEAR=1900
DGENRE=Salsa
TTITLE0=Deja que te diaga
TTITLE1=malo cantidad
TTITLE2=la manzana
TTITLE3=agua fria
TTITLE4=golpes
TTITLE5=tu hombre soy yo
TTITLE6=yo lo presenti
TTITLE7=Tremenda Parejita
TTITLE8=esto fue lo que quedo
TTITLE9=por la vena del gusto
TTITLE10=matilda
TTITLE11=el melon
TTITLE12=si llego a besarte
TTITLE13=salsita
TTITLE14=la pistola
TTITLE15=pa la luna
TTITLE16=agua fria (remix)
TTITLE17=la manzana (IT)
EXTD=
EXTT0=
EXTT1=
EXTT2=
EXTT3=
EXTT4=
EXTT5=
EXTT6=
EXTT7=
EXTT8=
EXTT9=
EXTT10=
EXTT11=
EXTT12=
EXTT13=
EXTT14=
EXTT15=
EXTT16=
EXTT17=
PLAYORDER=
